Coordinates
version=1
nRows=24
nColumns=24
inDegrees=yes

Units are S.I. units (second, meters, Newtons, ...)
Angles are in degrees.

endheader
time	pelvis_tilt	pelvis_list	pelvis_rotation	pelvis_tx	pelvis_ty	pelvis_tz	hip_flexion_r	hip_adduction_r	hip_rotation_r	knee_angle_r	ankle_angle_r	subtalar_angle_r	mtp_angle_r	hip_flexion_l	hip_adduction_l	hip_rotation_l	knee_angle_l	ankle_angle_l	subtalar_angle_l	mtp_angle_l	lumbar_extension	lumbar_bending	lumbar_rotation
      3.68500000	     29.54176877	     17.36338393	     17.63718731	     -0.35372785	      0.63335729	     -0.33897952	     -5.96881173	    -14.08675733	    -22.64246910	     -3.50928183	     11.08768829	      1.69973057	      0.00000000	    -54.92087759	     -2.45191743	      7.50830440	    -13.42856155	     20.81899094	     20.58940089	      0.00000000	    -60.88897868	      1.07037621	    -22.79714096
      3.69000000	     29.80191679	     16.79249800	     17.73839111	     -0.34538226	      0.63299501	     -0.33880024	     -5.61060193	    -13.46075655	    -22.25859693	     -5.39660621	     10.67107363	      1.22255043	      0.00000000	    -55.04460277	     -3.24395493	      7.35029028	    -14.78589069	     19.83399824	     20.27464431	      0.00000000	    -60.98670631	      1.65291490	    -21.91064528
      3.69500000	     30.08605971	     16.15487033	     17.59455709	     -0.33701537	      0.63261582	     -0.33841368	     -5.08667480	    -12.79971563	    -21.55367287	     -7.53040968	     10.24114713	      0.63483367	      0.00000000	    -55.15734231	     -3.87789813	      6.87142489	    -16.19343073	     18.65467474	     20.08703845	      0.00000000	    -61.12231859	      2.06618207	    -20.71624859
      3.70000000	     30.29838685	     15.48008784	     17.46786584	     -0.32861122	      0.63226527	     -0.33805207	     -4.46467823	    -12.12507070	    -20.86590789	     -9.78453013	      9.77377635	      0.14501859	      0.00000000	    -55.10380181	     -4.48129749	      6.47385632	    -17.76102929	     17.37069090	     19.73757359	      0.00000000	    -61.18112198	      2.50396961	    -19.56545407
      3.70500000	     30.47117930	     14.78586249	     17.29267105	     -0.32018003	      0.63193327	     -0.33759874	     -3.77944911	    -11.43279112	    -20.13418704	    -12.10851110	      9.31194298	     -0.29334602	      0.00000000	    -54.91692585	     -5.02039860	      6.02680418	    -19.48531425	     15.93925508	     19.32015789	      0.00000000	    -61.21599577	      2.88267779	    -18.38030454
      3.71000000	     30.60947981	     14.08095258	     17.09524538	     -0.31168666	      0.63161920	     -0.33716929	     -3.06828881	    -10.73442857	    -19.41120446	    -14.46844321	      8.86917082	     -0.67157670	      0.00000000	    -54.63633527	     -5.50817886	      5.58602689	    -21.29486247	     14.36958369	     18.82009881	      0.00000000	    -61.20322319	      3.25423514	    -17.20318495
      3.71500000	     30.79940566	     13.42543242	     17.13364013	     -0.30323843	      0.63149446	     -0.33685025	     -2.62522647	    -10.01935646	    -19.11937462	    -16.64146348	      8.47469500	     -0.85252526	      0.00000000	    -54.25521020	     -6.15724282	      5.33137934	    -23.32399661	     12.73457114	     18.15640501	      0.00000000	    -61.25713314	      3.76984884	    -16.23103944
      3.72000000	     30.85418308	     12.71022278	     16.71276767	     -0.29465757	      0.63114365	     -0.33613177	     -1.81296018	     -9.30130500	    -18.18148453	    -18.97881061	      8.17689554	     -1.22304831	      0.00000000	    -53.76544244	     -6.43451173	      4.61608106	    -25.29440203	     10.82037574	     17.61731879	      0.00000000	    -61.18360348	      3.89691592	    -14.95479108
      3.72500000	     30.91320921	     12.06380528	     16.56297547	     -0.28614348	      0.63097148	     -0.33564135	     -1.25794924	     -8.61199397	    -17.71149628	    -21.06890811	      7.98681902	     -1.40207219	      0.00000000	    -53.12602109	     -6.85937063	      4.18833236	    -27.45968155	      8.87536228	     16.84341288	      0.00000000	    -61.11588477	      4.20985444	    -13.95478752
      3.73000000	     31.06349762	     11.43827399	     16.61377538	     -0.27766860	      0.63099352	     -0.33528990	     -1.00491222	     -7.87198663	    -17.54004150	    -22.91364773	      7.87357705	     -1.48814596	      0.00000000	    -52.47009824	     -7.45883230	      3.88039778	    -29.71156872	      6.87749366	     15.95392951	      0.00000000	    -61.12743377	      4.69785943	    -13.12001049
      3.73500000	     31.06914884	     10.81964939	     16.39203883	     -0.26918983	      0.63087456	     -0.33466024	     -0.54474294	     -7.17654502	    -17.08388888	    -24.73080342	      7.97691833	     -1.64252241	      0.00000000	    -51.62724167	     -7.79586327	      3.32351266	    -31.99434365	      4.76619289	     14.99770749	      0.00000000	    -61.03138774	      4.88611575	    -12.13460817
      3.74000000	     31.22120856	     10.22641370	     16.52855466	     -0.26079968	      0.63106567	     -0.33428828	     -0.54301280	     -6.40688716	    -17.13730223	    -26.17499928	      8.13933719	     -1.72469665	      0.00000000	    -50.79222124	     -8.45504491	      2.99230981	    -34.36477613	      2.68284318	     13.93445933	      0.00000000	    -61.05385987	      5.39451973	    -11.46843994
      3.74500000	     31.33509259	      9.63494489	     16.61380549	     -0.25245388	      0.63126285	     -0.33388545	     -0.56161419	     -5.62976473	    -17.13356994	    -27.48127303	      8.49114138	     -1.79956519	      0.00000000	    -49.85777909	     -9.05116072	      2.63702727	    -36.75138081	      0.62983294	     12.74295764	      0.00000000	    -61.04542763	      5.84519386	    -10.77307858
      3.75000000	     31.17566302	      9.11628778	     16.50556192	     -0.24427292	      0.63128846	     -0.33336669	     -0.24816823	     -5.02949241	    -16.87249754	    -28.81637327	      9.05994034	     -1.81414912	      0.00000000	    -48.55896448	     -9.31548948	      2.31494339	    -39.22558265	     -1.33846809	     11.37892867	      0.00000000	    -60.82817315	      6.04659568	    -10.10879374
      3.75500000	     31.30011346	      8.52135587	     16.66563807	     -0.23605835	      0.63165426	     -0.33294974	     -0.49017167	     -4.17254620	    -16.97649075	    -29.73755199	      9.64153957	     -1.93756409	      0.00000000	    -47.50029479	     -9.98999127	      1.98495827	    -41.60994890	     -3.15475276	     10.06367233	      0.00000000	    -60.83050827	      6.54236633	     -9.51201686
      3.76000000	     31.23718850	      8.03495717	     16.82899781	     -0.22808818	      0.63198604	     -0.33261560	     -0.60204485	     -3.49891090	    -17.08617466	    -30.57079744	     10.44374054	     -1.89212604	      0.00000000	    -46.13438495	    -10.46919069	      1.87041240	    -44.09068742	     -4.72432122	      8.57840255	      0.00000000	    -60.70766019	      6.95799441	     -9.09555144
      3.76500000	     31.33036194	      7.45171824	     16.96038445	     -0.22007863	      0.63250331	     -0.33226043	     -0.95951262	     -2.62547824	    -17.17141090	    -31.17512204	     11.17892106	     -1.97826230	      0.00000000	    -44.94690376	    -11.07111721	      1.60627224	    -46.42151222	     -6.13616567	      7.18560477	      0.00000000	    -60.69920856	      7.44771322	     -8.55957535
      3.77000000	     31.22562028	      7.02741019	     17.22329788	     -0.21230216	      0.63303724	     -0.33196172	     -1.22015354	     -1.97360454	    -17.40418289	    -31.68171817	     12.10938851	     -1.89302448	      0.00000000	    -43.42229752	    -11.54918388	      1.65455885	    -48.83528945	     -7.20926713	      5.73995521	      0.00000000	    -60.54971384	      7.86536890	     -8.33151602
      3.77500000	     31.31518525	      6.48444871	     17.32896313	     -0.20447676	      0.63375726	     -0.33161078	     -1.72136515	     -1.09665633	    -17.46065609	    -31.98591550	     12.93724230	     -1.93652048	      0.00000000	    -42.17381467	    -12.07222690	      1.46387644	    -51.04174428	     -8.04863986	      4.37643356	      0.00000000	    -60.56239553	      8.30051641	     -7.84075230
      3.78000000	     31.23133675	      6.10733879	     17.62192487	     -0.19685094	      0.63455118	     -0.33136434	     -2.17046097	     -0.43453030	    -17.72682057	    -32.17714815	     13.89313034	     -1.82460283	      0.00000000	    -40.61699811	    -12.50603479	      1.62162016	    -53.29370772	     -8.55055611	      3.08905002	      0.00000000	    -60.43940152	      8.71167156	     -7.72226193
      3.78500000	     31.33645561	      5.64000983	     17.67201208	     -0.18920503	      0.63552049	     -0.33104274	     -2.82175945	      0.39727683	    -17.72287301	    -32.22994660	     14.71432619	     -1.81490000	      0.00000000	    -39.37056687	    -12.89224526	      1.49374133	    -55.31248141	     -8.76532266	      1.85889619	      0.00000000	    -60.49867153	      9.05464345	     -7.28838926
      3.79000000	     31.39357659	      5.24592243	     17.76499937	     -0.18163926	      0.63661942	     -0.33077113	     -3.51401706	      1.15044686	    -17.76573025	    -32.15789338	     15.53564229	     -1.71894245	      0.00000000	    -38.04152475	    -13.20865463	      1.48417708	    -57.25214258	     -8.71369516	      0.71835925	      0.00000000	    -60.52131023	      9.36743563	     -6.99576814
      3.79500000	     31.42884783	      4.92505283	     17.87008623	     -0.17415812	      0.63784697	     -0.33052034	     -4.25954630	      1.83411662	    -17.81727116	    -31.97755608	     16.32374166	     -1.58428121	      0.00000000	    -36.67450012	    -13.43760607	      1.56076651	    -59.09209977	     -8.39569761	     -0.30534401	      0.00000000	    -60.53710567	      9.63079303	     -6.80056011
      3.80000000	     31.37859024	      4.75160853	     18.10133431	     -0.16678266	      0.63917792	     -0.33028266	     -5.02398651	      2.37131585	    -17.99723221	    -31.69006369	     17.15248393	     -1.42885263	      0.00000000	    -35.15442753	    -13.57362428	      1.87018746	    -60.86937870	     -7.82805046	     -1.12332455	      0.00000000	    -60.48317740	      9.84505276	     -6.89074654
